<svg width="52" height="49" viewBox="0 0 52 49" fill="none" xmlns="http://www.w3.org/2000/svg">
<path fill-rule="evenodd" clip-rule="evenodd" d="M4.83509 14.528V34.4162L16.668 40.0249V44.5142L0.0113234 36.6483H0V12.0633L21.4295 2.27541L21.3559 2.24121L26.1372 0L32.0112 2.82717V2.97308V10.6087L37.8767 13.3834H37.9418V13.4176L43.847 16.2106V20.709L37.9418 17.916V35.2529L33.1152 37.7176V15.6315L27.1874 12.8317H27.1761V5.02278L26.1825 4.53943L4.83509 14.528ZM51.377 11.9265H51.3884V36.6414L26.3637 48.3445V48.3537L19.312 45.0454V22.7063L15.8018 29.2384L12.4218 22.9388V35.0113L7.58667 32.8225V15.7432C9.43804 14.9156 11.4819 14.1586 12.937 13.5727L16.1047 20.9233L19.3149 10.6087L24.1471 8.17826V42.8179L26.3608 43.853L46.5504 34.4162V14.1495L34.7175 8.54078V4.04923L51.377 11.9265Z" fill="white"/>
</svg>
